<svg width="326" height="140" viewBox="0 0 326 140" fill="none" xmlns="http://www.w3.org/2000/svg">
  <defs>
    <clipPath id="clip0_4293_18663">
      <rect width="326" height="140" fill="white"/>
    </clipPath>
  </defs>
  <g clip-path="url(#clip0_4293_18663)">
    <!-- Row 1 -->
    <path d="M91.333 0H12C5.37258 0 0 5.37258 0 12V54C0 60.6274 5.37258 66 12 66H91.333C97.9604 66 103.333 60.6274 103.333 54V12C103.333 5.37258 97.9604 0 91.333 0Z" fill="rgba(255, 255, 255, 0.1)"/>
    <path d="M44.5835 27V17.8333C44.5835 14.5 45.4168 13.6667 48.7502 13.6667H54.5835C57.9168 13.6667 58.7502 14.5 58.7502 17.8333V26.1667C58.7502 26.2833 58.7502 26.4 58.7418 26.5167" stroke="#a3a3a3" stroke-width="1.3" stroke-linecap="round" stroke-linejoin="round"/>
    <path d="M46.9585 24.5H58.7502V27.4167C58.7502 29.025 57.4418 30.3333 55.8335 30.3333H47.5002C45.8918 30.3333 44.5835 29.025 44.5835 27.4167V26.875C44.5835 25.5667 45.6502 24.5 46.9585 24.5Z" stroke="#a3a3a3" stroke-width="1.3" stroke-linecap="round" stroke-linejoin="round"/>
    <path d="M48.3335 17.8333H55.0002" stroke="#a3a3a3" stroke-width="1.3" stroke-linecap="round" stroke-linejoin="round"/>
    <path d="M48.3335 20.75H52.5002" stroke="#a3a3a3" stroke-width="1.3" stroke-linecap="round" stroke-linejoin="round"/>
    <path d="M202.666 0H123.333C116.706 0 111.333 5.37258 111.333 12V54C111.333 60.6274 116.706 66 123.333 66H202.666C209.293 66 214.666 60.6274 214.666 54V12C214.666 5.37258 209.293 0 202.666 0Z" fill="rgba(255, 255, 255, 0.1)"/>
    <path d="M166.771 15.084L166.401 15.295C166.111 15.462 165.98 15.8224 166.094 16.1388L166.226 16.5168C166.331 16.8068 166.147 17.1233 165.839 17.176L165.461 17.2463C165.127 17.3078 164.881 17.5979 164.881 17.9407V18.3714C164.881 18.7142 165.127 19.0042 165.461 19.0658L165.839 19.1361C166.147 19.1888 166.331 19.5053 166.226 19.8041L166.094 20.1733C165.98 20.4897 166.103 20.8501 166.401 21.0171L166.771 21.228C167.069 21.395 167.439 21.3335 167.658 21.0698L167.913 20.771C168.115 20.5336 168.485 20.5336 168.678 20.771L168.933 21.0698C169.153 21.3335 169.531 21.395 169.821 21.228L170.19 21.0171C170.489 20.8501 170.612 20.4897 170.497 20.1733L170.366 19.8041C170.26 19.514 170.445 19.1888 170.752 19.1361L171.139 19.0658C171.473 19.0042 171.719 18.7142 171.719 18.3714V17.9495C171.719 17.6067 171.473 17.3166 171.139 17.2551L170.752 17.1848C170.445 17.132 170.26 16.8156 170.366 16.5168L170.497 16.1476C170.612 15.8312 170.48 15.4708 170.19 15.3038L169.821 15.0928C169.522 14.9258 169.153 14.9874 168.933 15.2511L168.678 15.5499C168.476 15.7872 168.107 15.7872 167.905 15.5499L167.667 15.2598C167.447 14.9962 167.069 14.9258 166.771 15.1016V15.084Z" stroke="#a3a3a3" stroke-width="1.25" stroke-linecap="round" stroke-linejoin="round"/>
    <path d="M168.288 18.152H168.296" stroke="#a3a3a3" stroke-width="1.66667" stroke-linecap="round" stroke-linejoin="round"/>
    <path d="M171.433 23.1954V26C171.433 27.6583 170.092 29 168.433 29H157.433C155.775 29 154.433 27.6583 154.433 26V18C154.433 16.3416 155.775 15 157.433 15H162.933" stroke="#a3a3a3" stroke-width="1.25" stroke-linecap="round" stroke-linejoin="round"/>
    <path d="M154.433 19H162.378" stroke="#a3a3a3" stroke-width="1.25" stroke-linecap="round" stroke-linejoin="round"/>
    <path d="M157.933 25.6667H159.433" stroke="#a3a3a3" stroke-width="1.25" stroke-linecap="round" stroke-linejoin="round"/>
    <path d="M161.933 25.6667H164.933" stroke="#a3a3a3" stroke-width="1.25" stroke-linecap="round" stroke-linejoin="round"/>
    <path d="M314 0H234.667C228.04 0 222.667 5.37258 222.667 12V54C222.667 60.6274 228.04 66 234.667 66H314C320.627 66 326 60.6274 326 54V12C326 5.37258 320.627 0 314 0Z" fill="rgba(255, 255, 255, 0.1)"/>
    <path d="M269.583 20.3333V18.6667C269.583 15.9083 270.375 13.6667 274.333 13.6667C278.292 13.6667 279.083 15.9083 279.083 18.6667V20.3333" stroke="#a3a3a3" stroke-width="1.25" stroke-linecap="round" stroke-linejoin="round"/>
    <path d="M278.292 30.3333H270.375C267.208 30.3333 266.417 29.5 266.417 26.1667V24.5C266.417 21.1667 267.208 20.3333 270.375 20.3333H278.292C281.458 20.3333 282.25 21.1667 282.25 24.5V26.1667C282.25 29.5 281.458 30.3333 278.292 30.3333Z" stroke="#a3a3a3" stroke-width="1.25" stroke-linecap="round" stroke-linejoin="round"/>
    <path d="M270.649 25.35H270.656" stroke="#a3a3a3" stroke-width="1.66667" stroke-linecap="round" stroke-linejoin="round"/>
    <path d="M274.33 25.35H274.337" stroke="#a3a3a3" stroke-width="1.66667" stroke-linecap="round" stroke-linejoin="round"/>
    <path d="M278.011 25.35H278.018" stroke="#a3a3a3" stroke-width="1.66667" stroke-linecap="round" stroke-linejoin="round"/>
    <text x="51.5" y="53" fill="#a3a3a3" font-family="system-ui, -apple-system, BlinkMacSystemFont, 'Segoe UI', sans-serif" font-size="11" font-weight="500" text-anchor="middle">Block Card</text>
    <text x="163" y="53" fill="#a3a3a3" font-family="system-ui, -apple-system, BlinkMacSystemFont, 'Segoe UI', sans-serif" font-size="11" font-weight="500" text-anchor="middle">Transaction Limits</text>
    <text x="274.5" y="53" fill="#a3a3a3" font-family="system-ui, -apple-system, BlinkMacSystemFont, 'Segoe UI', sans-serif" font-size="11" font-weight="500" text-anchor="middle">Change PIN</text>
    <!-- Row 2 -->
    <path d="M91.333 74H12C5.37258 74 0 79.3726 0 86V128C0 134.627 5.37258 140 12 140H91.333C97.9604 140 103.333 134.627 103.333 128V86C103.333 79.3726 97.9604 74 91.333 74Z" fill="rgba(255, 255, 255, 0.1)"/>
    <path d="M43.3335 93.0875H60.0002" stroke="#a3a3a3" stroke-width="1.3" stroke-miterlimit="10" stroke-linecap="round" stroke-linejoin="round"/>
    <path d="M46.6667 99.7541H48.3335" stroke="#a3a3a3" stroke-width="1.3" stroke-miterlimit="10" stroke-linecap="round" stroke-linejoin="round"/>
    <path d="M50.4167 99.7541H53.7501" stroke="#a3a3a3" stroke-width="1.3" stroke-miterlimit="10" stroke-linecap="round" stroke-linejoin="round"/>
    <path d="M47.0335 88.9208H56.2918C59.2585 88.9208 60.0002 89.6541 60.0002 92.5791V99.4208C60.0002 102.346 59.2585 103.079 56.3002 103.079H47.0335C44.0752 103.087 43.3335 102.354 43.3335 99.4291V92.5791C43.3335 89.6541 44.0752 88.9208 47.0335 88.9208Z" stroke="#a3a3a3" stroke-width="1.3" stroke-linecap="round" stroke-linejoin="round"/>
    <path d="M202.666 74H123.333C116.706 74 111.333 79.3726 111.333 86V128C111.333 134.627 116.706 140 123.333 140H202.666C209.293 140 214.666 134.627 214.666 128V86C214.666 79.3726 209.293 74 202.666 74Z" fill="rgba(255, 255, 255, 0.1)"/>
    <path d="M154.667 93.0833H164.25" stroke="#a3a3a3" stroke-width="1.3" stroke-miterlimit="10" stroke-linecap="round" stroke-linejoin="round"/>
    <path d="M158 99.75H159.667" stroke="#a3a3a3" stroke-width="1.3" stroke-miterlimit="10" stroke-linecap="round" stroke-linejoin="round"/>
    <path d="M161.75 99.75H165.083" stroke="#a3a3a3" stroke-width="1.3" stroke-miterlimit="10" stroke-linecap="round" stroke-linejoin="round"/>
    <path d="M171.333 96.025V99.425C171.333 102.35 170.592 103.083 167.633 103.083H158.367C155.408 103.083 154.667 102.35 154.667 99.425V92.575C154.667 89.65 155.408 88.9167 158.367 88.9167H164.25" stroke="#a3a3a3" stroke-width="1.3" stroke-linecap="round" stroke-linejoin="round"/>
    <path d="M167.162 93.0866L170.962 89.2866" stroke="#a3a3a3" stroke-width="1.3" stroke-linecap="round"/>
    <path d="M170.962 93.0866L167.162 89.2866" stroke="#a3a3a3" stroke-width="1.3" stroke-linecap="round"/>
    <path d="M314 74H234.667C228.04 74 222.667 79.3726 222.667 86V128C222.667 134.627 228.04 140 234.667 140H314C320.627 140 326 134.627 326 128V86C326 79.3726 320.627 74 314 74Z" fill="rgba(255, 255, 255, 0.1)"/>
    <path d="M274.333 96C276.635 96 278.5 94.1345 278.5 91.8333C278.5 89.5321 276.635 87.6667 274.333 87.6667C272.032 87.6667 270.167 89.5321 270.167 91.8333C270.167 94.1345 272.032 96 274.333 96Z" stroke="#a3a3a3" stroke-width="1.3" stroke-linecap="round" stroke-linejoin="round"/>
    <path d="M281.492 104.333C281.492 101.108 278.283 98.5 274.333 98.5C270.383 98.5 267.175 101.108 267.175 104.333" stroke="#a3a3a3" stroke-width="1.3" stroke-linecap="round" stroke-linejoin="round"/>
    <text x="51.5" y="127" fill="#a3a3a3" font-family="system-ui, -apple-system, BlinkMacSystemFont, 'Segoe UI', sans-serif" font-size="11" font-weight="500" text-anchor="middle">Card Closure</text>
    <text x="163" y="127" fill="#a3a3a3" font-family="system-ui, -apple-system, BlinkMacSystemFont, 'Segoe UI', sans-serif" font-size="11" font-weight="500" text-anchor="middle">Re-issue Card</text>
    <text x="274.5" y="127" fill="#a3a3a3" font-family="system-ui, -apple-system, BlinkMacSystemFont, 'Segoe UI', sans-serif" font-size="11" font-weight="500" text-anchor="middle">Manage Profile</text>
  </g>
</svg>
