<svg width="180" height="26" viewBox="0 0 180 26" fill="none" xmlns="http://www.w3.org/2000/svg">
<rect width="180" height="26" rx="8" fill="#DFEBFA" fill-opacity="0.1"/>
<rect x="4" y="4" width="24" height="18" rx="5" fill="#1D86FF"/>
<path d="M22.7406 15.9134L22.5812 15.0436H20.8005L20.5171 15.9072L19.0898 15.9103C19.7693 14.1267 20.4503 12.3437 21.1327 10.5613C21.2488 10.259 21.455 10.1052 21.7588 10.1067C21.9912 10.109 22.3701 10.109 22.8964 10.1075L24 15.9111L22.7406 15.9134ZM21.2014 13.8521H22.3489L21.9203 11.6716L21.2014 13.8521ZM12.0008 10.1059L13.4359 10.1075L11.2174 15.9142L9.76463 15.9126C9.3993 14.3789 9.03852 12.8438 8.68229 11.3075C8.61146 11.0013 8.47121 10.7871 8.20133 10.6858C7.96121 10.5954 7.561 10.4562 7 10.2668V10.1082H9.29287C9.68954 10.1082 9.92117 10.3178 9.99554 10.7477C10.0706 11.1784 10.259 12.2747 10.5622 14.0369L12.0008 10.1059ZM15.4079 10.1075L14.2732 15.9126L12.9075 15.9111L14.0408 10.1059L15.4079 10.1075ZM18.1775 10C18.5862 10 19.1012 10.1392 19.3973 10.2668L19.1578 11.4706C18.8901 11.3531 18.4495 11.1946 18.079 11.2C17.5407 11.2101 17.2078 11.4567 17.2078 11.6933C17.2078 12.0784 17.7858 12.2724 18.3808 12.693C19.0601 13.1724 19.1493 13.6031 19.1408 14.0709C19.1316 15.042 18.3808 16 16.797 16C16.0745 15.9884 15.8138 15.9219 15.2245 15.6938L15.4738 14.4374C16.0738 14.7119 16.328 14.7992 16.8409 14.7992C17.3105 14.7992 17.7135 14.592 17.7171 14.2309C17.7199 13.9742 17.5754 13.8466 17.0484 13.5296C16.5214 13.2119 15.7819 12.7719 15.7918 11.8889C15.8039 10.7585 16.7842 10 18.1775 10Z" fill="white"/>
<path d="M38.76 14.564C38.472 14.564 38.208 14.496 37.968 14.36C37.736 14.216 37.548 14.028 37.404 13.796C37.268 13.556 37.2 13.292 37.2 13.004C37.2 12.564 37.352 12.192 37.656 11.888C37.96 11.584 38.328 11.432 38.76 11.432C39.208 11.432 39.584 11.584 39.888 11.888C40.192 12.192 40.344 12.564 40.344 13.004C40.344 13.444 40.192 13.816 39.888 14.12C39.584 14.416 39.208 14.564 38.76 14.564ZM44.303 14.564C44.015 14.564 43.751 14.496 43.511 14.36C43.279 14.216 43.091 14.028 42.947 13.796C42.811 13.556 42.743 13.292 42.743 13.004C42.743 12.564 42.895 12.192 43.199 11.888C43.503 11.584 43.871 11.432 44.303 11.432C44.751 11.432 45.127 11.584 45.431 11.888C45.735 12.192 45.887 12.564 45.887 13.004C45.887 13.444 45.735 13.816 45.431 14.12C45.127 14.416 44.751 14.564 44.303 14.564ZM49.8459 14.564C49.5579 14.564 49.2939 14.496 49.0539 14.36C48.8219 14.216 48.6339 14.028 48.4899 13.796C48.3539 13.556 48.2859 13.292 48.2859 13.004C48.2859 12.564 48.4379 12.192 48.7419 11.888C49.0459 11.584 49.4139 11.432 49.8459 11.432C50.2939 11.432 50.6699 11.584 50.9739 11.888C51.2779 12.192 51.4299 12.564 51.4299 13.004C51.4299 13.444 51.2779 13.816 50.9739 14.12C50.6699 14.416 50.2939 14.564 49.8459 14.564ZM55.3889 14.564C55.1009 14.564 54.8369 14.496 54.5969 14.36C54.3649 14.216 54.1769 14.028 54.0329 13.796C53.8969 13.556 53.8289 13.292 53.8289 13.004C53.8289 12.564 53.9809 12.192 54.2849 11.888C54.5889 11.584 54.9569 11.432 55.3889 11.432C55.8369 11.432 56.2129 11.584 56.5169 11.888C56.8209 12.192 56.9729 12.564 56.9729 13.004C56.9729 13.444 56.8209 13.816 56.5169 14.12C56.2129 14.416 55.8369 14.564 55.3889 14.564ZM67.1663 14.564C66.8783 14.564 66.6143 14.496 66.3743 14.36C66.1423 14.216 65.9543 14.028 65.8103 13.796C65.6743 13.556 65.6063 13.292 65.6063 13.004C65.6063 12.564 65.7583 12.192 66.0623 11.888C66.3663 11.584 66.7343 11.432 67.1663 11.432C67.6143 11.432 67.9903 11.584 68.2943 11.888C68.5983 12.192 68.7503 12.564 68.7503 13.004C68.7503 13.444 68.5983 13.816 68.2943 14.12C67.9903 14.416 67.6143 14.564 67.1663 14.564ZM72.7092 14.564C72.4212 14.564 72.1572 14.496 71.9172 14.36C71.6852 14.216 71.4972 14.028 71.3532 13.796C71.2172 13.556 71.1492 13.292 71.1492 13.004C71.1492 12.564 71.3012 12.192 71.6052 11.888C71.9092 11.584 72.2772 11.432 72.7092 11.432C73.1572 11.432 73.5332 11.584 73.8372 11.888C74.1412 12.192 74.2932 12.564 74.2932 13.004C74.2932 13.444 74.1412 13.816 73.8372 14.12C73.5332 14.416 73.1572 14.564 72.7092 14.564ZM78.2522 14.564C77.9642 14.564 77.7002 14.496 77.4602 14.36C77.2282 14.216 77.0402 14.028 76.8962 13.796C76.7602 13.556 76.6922 13.292 76.6922 13.004C76.6922 12.564 76.8442 12.192 77.1482 11.888C77.4522 11.584 77.8202 11.432 78.2522 11.432C78.7002 11.432 79.0762 11.584 79.3802 11.888C79.6842 12.192 79.8362 12.564 79.8362 13.004C79.8362 13.444 79.6842 13.816 79.3802 14.12C79.0762 14.416 78.7002 14.564 78.2522 14.564ZM83.7952 14.564C83.5072 14.564 83.2432 14.496 83.0032 14.36C82.7712 14.216 82.5832 14.028 82.4392 13.796C82.3032 13.556 82.2352 13.292 82.2352 13.004C82.2352 12.564 82.3872 12.192 82.6912 11.888C82.9952 11.584 83.3632 11.432 83.7952 11.432C84.2432 11.432 84.6192 11.584 84.9232 11.888C85.2272 12.192 85.3792 12.564 85.3792 13.004C85.3792 13.444 85.2272 13.816 84.9232 14.12C84.6192 14.416 84.2432 14.564 83.7952 14.564ZM95.5725 14.564C95.2845 14.564 95.0205 14.496 94.7805 14.36C94.5485 14.216 94.3605 14.028 94.2165 13.796C94.0805 13.556 94.0125 13.292 94.0125 13.004C94.0125 12.564 94.1645 12.192 94.4685 11.888C94.7725 11.584 95.1405 11.432 95.5725 11.432C96.0205 11.432 96.3965 11.584 96.7005 11.888C97.0045 12.192 97.1565 12.564 97.1565 13.004C97.1565 13.444 97.0045 13.816 96.7005 14.12C96.3965 14.416 96.0205 14.564 95.5725 14.564ZM101.115 14.564C100.827 14.564 100.563 14.496 100.323 14.36C100.091 14.216 99.9035 14.028 99.7595 13.796C99.6235 13.556 99.5555 13.292 99.5555 13.004C99.5555 12.564 99.7075 12.192 100.011 11.888C100.315 11.584 100.683 11.432 101.115 11.432C101.563 11.432 101.939 11.584 102.243 11.888C102.547 12.192 102.699 12.564 102.699 13.004C102.699 13.444 102.547 13.816 102.243 14.12C101.939 14.416 101.563 14.564 101.115 14.564ZM106.658 14.564C106.37 14.564 106.106 14.496 105.866 14.36C105.634 14.216 105.446 14.028 105.302 13.796C105.166 13.556 105.098 13.292 105.098 13.004C105.098 12.564 105.25 12.192 105.554 11.888C105.858 11.584 106.226 11.432 106.658 11.432C107.106 11.432 107.482 11.584 107.786 11.888C108.09 12.192 108.242 12.564 108.242 13.004C108.242 13.444 108.09 13.816 107.786 14.12C107.482 14.416 107.106 14.564 106.658 14.564ZM112.201 14.564C111.913 14.564 111.649 14.496 111.409 14.36C111.177 14.216 110.989 14.028 110.845 13.796C110.709 13.556 110.641 13.292 110.641 13.004C110.641 12.564 110.793 12.192 111.097 11.888C111.401 11.584 111.769 11.432 112.201 11.432C112.649 11.432 113.025 11.584 113.329 11.888C113.633 12.192 113.785 12.564 113.785 13.004C113.785 13.444 113.633 13.816 113.329 14.12C113.025 14.416 112.649 14.564 112.201 14.564ZM123.643 14.624C123.723 15.024 123.895 15.328 124.159 15.536C124.423 15.744 124.779 15.848 125.227 15.848C125.795 15.848 126.211 15.624 126.475 15.176C126.739 14.728 126.871 13.964 126.871 12.884C126.679 13.156 126.407 13.368 126.055 13.52C125.711 13.664 125.335 13.736 124.927 13.736C124.407 13.736 123.935 13.632 123.511 13.424C123.087 13.208 122.751 12.892 122.503 12.476C122.263 12.052 122.143 11.54 122.143 10.94C122.143 10.06 122.399 9.36 122.911 8.84C123.431 8.312 124.143 8.048 125.047 8.048C126.135 8.048 126.907 8.412 127.363 9.14C127.827 9.86 128.059 10.968 128.059 12.464C128.059 13.496 127.971 14.34 127.795 14.996C127.627 15.652 127.331 16.148 126.907 16.484C126.483 16.82 125.895 16.988 125.143 16.988C124.287 16.988 123.627 16.764 123.163 16.316C122.699 15.868 122.439 15.304 122.383 14.624H123.643ZM125.167 12.584C125.647 12.584 126.023 12.436 126.295 12.14C126.575 11.836 126.715 11.436 126.715 10.94C126.715 10.388 126.567 9.96 126.271 9.656C125.983 9.344 125.587 9.188 125.083 9.188C124.579 9.188 124.179 9.348 123.883 9.668C123.595 9.98 123.451 10.392 123.451 10.904C123.451 11.392 123.591 11.796 123.871 12.116C124.159 12.428 124.591 12.584 125.167 12.584ZM129.376 9.5V8.252H131.872V17H130.492V9.5H129.376ZM133.727 10.412C133.775 9.668 134.059 9.088 134.579 8.672C135.107 8.256 135.779 8.048 136.595 8.048C137.155 8.048 137.639 8.148 138.047 8.348C138.455 8.548 138.763 8.82 138.971 9.164C139.179 9.508 139.283 9.896 139.283 10.328C139.283 10.824 139.151 11.248 138.887 11.6C138.623 11.952 138.307 12.188 137.939 12.308V12.356C138.411 12.5 138.779 12.764 139.043 13.148C139.307 13.524 139.439 14.008 139.439 14.6C139.439 15.072 139.331 15.492 139.115 15.86C138.899 16.228 138.579 16.52 138.155 16.736C137.731 16.944 137.223 17.048 136.631 17.048C135.767 17.048 135.055 16.828 134.495 16.388C133.943 15.94 133.647 15.3 133.607 14.468H134.927C134.959 14.892 135.123 15.24 135.419 15.512C135.715 15.776 136.115 15.908 136.619 15.908C137.107 15.908 137.483 15.776 137.747 15.512C138.011 15.24 138.143 14.892 138.143 14.468C138.143 13.908 137.963 13.512 137.603 13.28C137.251 13.04 136.707 12.92 135.971 12.92H135.659V11.792H135.983C136.631 11.784 137.123 11.676 137.459 11.468C137.803 11.26 137.975 10.932 137.975 10.484C137.975 10.1 137.851 9.796 137.603 9.572C137.355 9.34 137.003 9.224 136.547 9.224C136.099 9.224 135.751 9.34 135.503 9.572C135.255 9.796 135.107 10.076 135.059 10.412H133.727ZM141.632 15.14C142.4 14.476 143.004 13.932 143.444 13.508C143.892 13.076 144.264 12.628 144.56 12.164C144.856 11.7 145.004 11.236 145.004 10.772C145.004 10.292 144.888 9.916 144.656 9.644C144.432 9.372 144.076 9.236 143.588 9.236C143.116 9.236 142.748 9.388 142.484 9.692C142.228 9.988 142.092 10.388 142.076 10.892H140.756C140.78 9.98 141.052 9.284 141.572 8.804C142.1 8.316 142.768 8.072 143.576 8.072C144.448 8.072 145.128 8.312 145.616 8.792C146.112 9.272 146.36 9.912 146.36 10.712C146.36 11.288 146.212 11.844 145.916 12.38C145.628 12.908 145.28 13.384 144.872 13.808C144.472 14.224 143.96 14.708 143.336 15.26L142.796 15.74H146.6V16.88H140.768V15.884L141.632 15.14Z" fill="#a3a3a3"/>
<g opacity="0.9">
<path d="M166.667 13.6007V16.4007C166.667 18.734 165.733 19.6673 163.4 19.6673H160.6C158.267 19.6673 157.333 18.734 157.333 16.4007V13.6007C157.333 11.2673 158.267 10.334 160.6 10.334H163.4C165.733 10.334 166.667 11.2673 166.667 13.6007Z" stroke="#a3a3a3" stroke-width="1.3" stroke-linecap="round" stroke-linejoin="round"/>
<path d="M170.667 9.60065V12.4007C170.667 14.734 169.733 15.6673 167.4 15.6673H166.667V13.6007C166.667 11.2673 165.733 10.334 163.4 10.334H161.333V9.60065C161.333 7.26732 162.267 6.33398 164.6 6.33398H167.4C169.733 6.33398 170.667 7.26732 170.667 9.60065Z" stroke="#a3a3a3" stroke-width="1.3" stroke-linecap="round" stroke-linejoin="round"/>
</g>
</svg>
