<svg width="360" height="140" viewBox="24 0 360 140" fill="none" xmlns="http://www.w3.org/2000/svg">
<g filter="url(#filter0_d_4662_33197)">
<rect width="360" height="68" transform="translate(24 40)" fill="white"/>
<mask id="path-1-inside-1_4662_33197" fill="white">
<path d="M24 40H96V108H24V40Z"/>
</mask>
<path d="M24 40V41H96V40V39H24V40Z" fill="#D0DDFC" mask="url(#path-1-inside-1_4662_33197)"/>
<path d="M57.5167 54.3671L53.0251 57.8671C52.2751 58.4505 51.6667 59.6921 51.6667 60.6338V66.8088C51.6667 68.7421 53.2417 70.3255 55.1751 70.3255H64.8251C66.7584 70.3255 68.3334 68.7421 68.3334 66.8171V60.7505C68.3334 59.7421 67.6584 58.4505 66.8334 57.8755L61.6834 54.2671C60.5167 53.4505 58.6417 53.4921 57.5167 54.3671Z" stroke="#1C3FCA" stroke-width="1.5" stroke-linecap="round" stroke-linejoin="round"/>
<path d="M60 66.9922V64.4922" stroke="#1C3FCA" stroke-width="1.5" stroke-linecap="round" stroke-linejoin="round"/>
<path d="M43.9842 92V83.2727H45.5651V86.9673H49.6092V83.2727H51.1944V92H49.6092V88.2926H45.5651V92H43.9842ZM55.5808 92.1278C54.9416 92.1278 54.3876 91.9872 53.9188 91.706C53.4501 91.4247 53.0865 91.0312 52.8279 90.5256C52.5723 90.0199 52.4444 89.429 52.4444 88.7528C52.4444 88.0767 52.5723 87.4844 52.8279 86.9759C53.0865 86.4673 53.4501 86.0724 53.9188 85.7912C54.3876 85.5099 54.9416 85.3693 55.5808 85.3693C56.22 85.3693 56.774 85.5099 57.2427 85.7912C57.7115 86.0724 58.0737 86.4673 58.3294 86.9759C58.5879 87.4844 58.7171 88.0767 58.7171 88.7528C58.7171 89.429 58.5879 90.0199 58.3294 90.5256C58.0737 91.0312 57.7115 91.4247 57.2427 91.706C56.774 91.9872 56.22 92.1278 55.5808 92.1278ZM55.5893 90.892C55.9359 90.892 56.2257 90.7969 56.4586 90.6065C56.6916 90.4134 56.8649 90.1548 56.9785 89.831C57.095 89.5071 57.1532 89.1463 57.1532 88.7486C57.1532 88.348 57.095 87.9858 56.9785 87.6619C56.8649 87.3352 56.6916 87.0753 56.4586 86.8821C56.2257 86.6889 55.9359 86.5923 55.5893 86.5923C55.2342 86.5923 54.9387 86.6889 54.7029 86.8821C54.47 87.0753 54.2953 87.3352 54.1788 87.6619C54.0652 87.9858 54.0083 88.348 54.0083 88.7486C54.0083 89.1463 54.0652 89.5071 54.1788 89.831C54.2953 90.1548 54.47 90.4134 54.7029 90.6065C54.9387 90.7969 55.2342 90.892 55.5893 90.892ZM59.9064 92V85.4545H61.3809V86.5668H61.4576C61.5939 86.1918 61.8198 85.8991 62.1351 85.6889C62.4505 85.4759 62.8269 85.3693 63.2644 85.3693C63.7076 85.3693 64.0812 85.4773 64.3851 85.6932C64.692 85.9062 64.9079 86.1974 65.0329 86.5668H65.101C65.2459 86.2031 65.4903 85.9134 65.834 85.6974C66.1806 85.4787 66.5911 85.3693 67.0655 85.3693C67.6678 85.3693 68.1593 85.5597 68.54 85.9403C68.9206 86.321 69.111 86.8764 69.111 87.6065V92H67.5641V87.8452C67.5641 87.4389 67.4562 87.142 67.2403 86.9545C67.0243 86.7642 66.7601 86.669 66.4476 86.669C66.0755 86.669 65.7843 86.7855 65.5741 87.0185C65.3667 87.2486 65.263 87.5483 65.263 87.9176V92H63.7502V87.7812C63.7502 87.4432 63.6479 87.1733 63.4434 86.9716C63.2417 86.7699 62.9775 86.669 62.6508 86.669C62.4292 86.669 62.2275 86.7259 62.0456 86.8395C61.8638 86.9503 61.7189 87.108 61.611 87.3125C61.503 87.5142 61.4491 87.75 61.4491 88.0199V92H59.9064ZM73.4537 92.1278C72.7975 92.1278 72.2307 91.9915 71.7534 91.7188C71.279 91.4432 70.9139 91.054 70.6582 90.5511C70.4026 90.0455 70.2747 89.4503 70.2747 88.7656C70.2747 88.0923 70.4026 87.5014 70.6582 86.9929C70.9168 86.4815 71.2776 86.0838 71.7406 85.7997C72.2037 85.5128 72.7477 85.3693 73.3727 85.3693C73.7761 85.3693 74.1568 85.4347 74.5148 85.5653C74.8756 85.6932 75.1938 85.892 75.4693 86.1619C75.7477 86.4318 75.9665 86.7756 76.1256 87.1932C76.2847 87.608 76.3642 88.1023 76.3642 88.6761V89.1491H70.9992V88.1094H74.8855C74.8827 87.8139 74.8188 87.5511 74.6938 87.321C74.5688 87.0881 74.394 86.9048 74.1696 86.7713C73.948 86.6378 73.6895 86.571 73.394 86.571C73.0787 86.571 72.8017 86.6477 72.5631 86.8011C72.3244 86.9517 72.1384 87.1506 72.0048 87.3977C71.8742 87.642 71.8074 87.9105 71.8046 88.2031V89.1108C71.8046 89.4915 71.8742 89.8182 72.0134 90.0909C72.1526 90.3608 72.3472 90.5682 72.5972 90.7131C72.8472 90.8551 73.1398 90.9261 73.475 90.9261C73.6994 90.9261 73.9026 90.8949 74.0844 90.8324C74.2662 90.767 74.4239 90.6719 74.5574 90.5469C74.6909 90.4219 74.7918 90.267 74.86 90.0824L76.3003 90.2443C76.2094 90.625 76.0361 90.9574 75.7804 91.2415C75.5276 91.5227 75.2037 91.7415 74.8088 91.8977C74.4139 92.0511 73.9622 92.1278 73.4537 92.1278Z" fill="#1C3FCA"/>
<rect x="24" y="40" width="72" height="1" fill="#EAEBF0"/>
<mask id="path-7-inside-2_4662_33197" fill="white">
<path d="M96 40H168V108H96V40Z"/>
</mask>
<path d="M96 40V41H168V40V39H96V40Z" fill="#D0DDFC" mask="url(#path-7-inside-2_4662_33197)"/>
<rect width="20" height="20" transform="translate(122 52)" fill="white"/>
<circle cx="126" cy="56" r="1.5" stroke="#5C6172"/>
<circle cx="132" cy="56" r="1.5" stroke="#5C6172"/>
<circle cx="138" cy="56" r="1.5" stroke="#5C6172"/>
<circle cx="126" cy="62" r="1.5" stroke="#5C6172"/>
<circle cx="132" cy="62" r="1.5" stroke="#5C6172"/>
<circle cx="138" cy="62" r="1.5" stroke="#5C6172"/>
<circle cx="126" cy="68" r="1.5" stroke="#5C6172"/>
<circle cx="132" cy="68" r="1.5" stroke="#5C6172"/>
<circle cx="138" cy="68" r="1.5" stroke="#5C6172"/>
<path d="M113.437 85.4545C113.386 85.0227 113.178 84.6875 112.815 84.4489C112.451 84.2102 112.005 84.0909 111.477 84.0909C111.09 84.0909 110.752 84.1534 110.463 84.2784C110.176 84.4034 109.951 84.5753 109.789 84.794C109.63 85.0128 109.551 85.2614 109.551 85.5398C109.551 85.7727 109.606 85.973 109.717 86.1406C109.83 86.3054 109.975 86.4432 110.151 86.554C110.328 86.6619 110.512 86.7514 110.705 86.8224C110.899 86.8906 111.076 86.946 111.238 86.9886L112.124 87.2273C112.352 87.2869 112.605 87.3693 112.883 87.4744C113.164 87.5795 113.433 87.723 113.688 87.9048C113.947 88.0838 114.16 88.3139 114.328 88.5952C114.495 88.8764 114.579 89.2216 114.579 89.6307C114.579 90.1023 114.455 90.5284 114.208 90.9091C113.964 91.2898 113.606 91.5923 113.134 91.8168C112.666 92.0412 112.096 92.1534 111.426 92.1534C110.801 92.1534 110.259 92.0526 109.802 91.8509C109.347 91.6491 108.99 91.3679 108.728 91.0071C108.47 90.6463 108.323 90.2273 108.289 89.75H109.38C109.409 90.0795 109.519 90.3523 109.713 90.5682C109.909 90.7812 110.156 90.9403 110.454 91.0455C110.755 91.1477 111.079 91.1989 111.426 91.1989C111.829 91.1989 112.191 91.1335 112.512 91.0028C112.833 90.8693 113.088 90.6847 113.275 90.4489C113.463 90.2102 113.556 89.9318 113.556 89.6136C113.556 89.3239 113.475 89.0881 113.313 88.9062C113.151 88.7244 112.938 88.5767 112.674 88.4631C112.41 88.3494 112.124 88.25 111.818 88.1648L110.744 87.858C110.062 87.6619 109.522 87.3821 109.124 87.0185C108.727 86.6548 108.528 86.179 108.528 85.5909C108.528 85.1023 108.66 84.6761 108.924 84.3125C109.191 83.946 109.549 83.6619 109.998 83.4602C110.45 83.2557 110.954 83.1534 111.511 83.1534C112.073 83.1534 112.573 83.2543 113.011 83.456C113.448 83.6548 113.795 83.9276 114.051 84.2741C114.309 84.6207 114.445 85.0142 114.46 85.4545H113.437ZM118.925 92.1364C118.294 92.1364 117.75 91.9972 117.292 91.7188C116.838 91.4375 116.487 91.0455 116.24 90.5426C115.996 90.0369 115.873 89.4489 115.873 88.7784C115.873 88.108 115.996 87.517 116.24 87.0057C116.487 86.4915 116.831 86.0909 117.271 85.804C117.714 85.5142 118.231 85.3693 118.822 85.3693C119.163 85.3693 119.5 85.4261 119.832 85.5398C120.165 85.6534 120.467 85.8381 120.74 86.0938C121.013 86.3466 121.23 86.6818 121.392 87.0994C121.554 87.517 121.635 88.0312 121.635 88.642V89.0682H116.589V88.1989H120.612C120.612 87.8295 120.538 87.5 120.39 87.2102C120.246 86.9205 120.038 86.6918 119.768 86.5241C119.501 86.3565 119.186 86.2727 118.822 86.2727C118.422 86.2727 118.075 86.3722 117.782 86.571C117.493 86.767 117.27 87.0227 117.113 87.3381C116.957 87.6534 116.879 87.9915 116.879 88.3523V88.9318C116.879 89.4261 116.964 89.8452 117.135 90.1889C117.308 90.5298 117.548 90.7898 117.855 90.9688C118.162 91.1449 118.518 91.233 118.925 91.233C119.189 91.233 119.427 91.196 119.64 91.1222C119.856 91.0455 120.042 90.9318 120.199 90.7812C120.355 90.6278 120.476 90.4375 120.561 90.2102L121.532 90.483C121.43 90.8125 121.258 91.1023 121.017 91.3523C120.775 91.5994 120.477 91.7926 120.122 91.9318C119.767 92.0682 119.368 92.1364 118.925 92.1364ZM123.165 92V85.4545H124.136V86.4432H124.204C124.324 86.1193 124.54 85.8565 124.852 85.6548C125.165 85.4531 125.517 85.3523 125.909 85.3523C125.983 85.3523 126.075 85.3537 126.186 85.3565C126.297 85.3594 126.381 85.3636 126.437 85.3693V86.392C126.403 86.3835 126.325 86.3707 126.203 86.3537C126.084 86.3338 125.957 86.3239 125.824 86.3239C125.506 86.3239 125.221 86.3906 124.971 86.5241C124.724 86.6548 124.528 86.8366 124.383 87.0696C124.241 87.2997 124.17 87.5625 124.17 87.858V92H123.165ZM133.181 85.4545L130.76 92H129.738L127.317 85.4545H128.408L130.215 90.6705H130.283L132.09 85.4545H133.181ZM134.508 92V85.4545H135.514V92H134.508ZM135.02 84.3636C134.824 84.3636 134.655 84.2969 134.513 84.1634C134.373 84.0298 134.304 83.8693 134.304 83.6818C134.304 83.4943 134.373 83.3338 134.513 83.2003C134.655 83.0668 134.824 83 135.02 83C135.216 83 135.383 83.0668 135.523 83.2003C135.665 83.3338 135.736 83.4943 135.736 83.6818C135.736 83.8693 135.665 84.0298 135.523 84.1634C135.383 84.2969 135.216 84.3636 135.02 84.3636ZM140.015 92.1364C139.401 92.1364 138.873 91.9915 138.43 91.7017C137.987 91.4119 137.646 91.0128 137.407 90.5043C137.169 89.9957 137.049 89.4148 137.049 88.7614C137.049 88.0966 137.171 87.5099 137.416 87.0014C137.663 86.4901 138.007 86.0909 138.447 85.804C138.89 85.5142 139.407 85.3693 139.998 85.3693C140.458 85.3693 140.873 85.4545 141.242 85.625C141.612 85.7955 141.914 86.0341 142.15 86.3409C142.386 86.6477 142.532 87.0057 142.589 87.4148H141.583C141.507 87.1165 141.336 86.8523 141.072 86.6222C140.811 86.3892 140.458 86.2727 140.015 86.2727C139.623 86.2727 139.279 86.375 138.984 86.5795C138.691 86.7812 138.463 87.0668 138.298 87.4361C138.136 87.8026 138.055 88.233 138.055 88.7273C138.055 89.233 138.134 89.6733 138.294 90.0483C138.455 90.4233 138.683 90.7145 138.975 90.9219C139.271 91.1293 139.617 91.233 140.015 91.233C140.276 91.233 140.514 91.1875 140.727 91.0966C140.94 91.0057 141.12 90.875 141.268 90.7045C141.416 90.5341 141.521 90.3295 141.583 90.0909H142.589C142.532 90.4773 142.392 90.8253 142.167 91.1349C141.945 91.4418 141.651 91.6861 141.285 91.8679C140.921 92.0469 140.498 92.1364 140.015 92.1364ZM146.803 92.1364C146.173 92.1364 145.629 91.9972 145.171 91.7188C144.717 91.4375 144.366 91.0455 144.119 90.5426C143.874 90.0369 143.752 89.4489 143.752 88.7784C143.752 88.108 143.874 87.517 144.119 87.0057C144.366 86.4915 144.71 86.0909 145.15 85.804C145.593 85.5142 146.11 85.3693 146.701 85.3693C147.042 85.3693 147.379 85.4261 147.711 85.5398C148.044 85.6534 148.346 85.8381 148.619 86.0938C148.892 86.3466 149.109 86.6818 149.271 87.0994C149.433 87.517 149.514 88.0312 149.514 88.642V89.0682H144.468V88.1989H148.491C148.417 87.5 148.269 87.2102C148.124 86.9205 147.917 86.6918 147.647 86.5241C147.38 86.3565 147.065 86.2727 146.701 86.2727C146.301 86.2727 145.954 86.3722 145.661 86.571C145.372 86.767 145.149 87.0227 144.992 87.3381C144.836 87.6534 144.758 87.9915 144.758 88.3523V88.9318C144.758 89.4261 144.843 89.8452 145.014 90.1889C145.187 90.5298 145.427 90.7898 145.734 90.9688C146.041 91.1449 146.397 91.233 146.803 91.233C147.068 91.233 147.306 91.196 147.519 91.1222C147.735 91.0455 147.921 90.9318 148.078 90.7812C148.234 90.6278 148.355 90.4375 148.44 90.2102L149.411 90.483C149.309 90.8125 149.137 91.1023 148.896 91.3523C148.654 91.5994 148.356 91.7926 148.001 91.9318C147.646 92.0682 147.247 92.1364 146.803 92.1364ZM155.68 86.9205L154.776 87.1761C154.72 87.0256 154.636 86.8793 154.525 86.7372C154.417 86.5923 154.269 86.473 154.082 86.3793C153.894 86.2855 153.654 86.2386 153.362 86.2386C152.961 86.2386 152.627 86.331 152.36 86.5156C152.096 86.6974 151.964 86.929 151.964 87.2102C151.964 87.4602 152.055 87.6577 152.237 87.8026C152.419 87.9474 152.703 88.0682 153.089 88.1648L154.061 88.4034C154.646 88.5455 155.082 88.7628 155.369 89.0554C155.656 89.3452 155.799 89.7187 155.799 90.1761C155.799 90.5511 155.691 90.8864 155.475 91.1818C155.262 91.4773 154.964 91.7102 154.58 91.8807C154.197 92.0511 153.751 92.1364 153.242 92.1364C152.575 92.1364 152.022 91.9915 151.585 91.7017C151.147 91.4119 150.87 90.9886 150.754 90.4318L151.708 90.1932C151.799 90.5455 151.971 90.8097 152.224 90.9858C152.48 91.1619 152.813 91.25 153.225 91.25C153.694 91.25 154.066 91.1506 154.342 90.9517C154.62 90.75 154.759 90.5085 154.759 90.2273C154.759 90 154.68 89.8097 154.521 89.6562C154.362 89.5 154.117 89.3835 153.788 89.3068L152.697 89.0511C152.097 88.9091 151.657 88.6889 151.376 88.3906C151.097 88.0895 150.958 87.7131 150.958 87.2614C150.958 86.892 151.062 86.5653 151.269 86.2812C151.48 85.9972 151.765 85.7741 152.126 85.6122C152.49 85.4503 152.901 85.3693 153.362 85.3693C154.009 85.3693 154.518 85.5114 154.887 85.7955C155.259 86.0795 155.524 86.4545 155.68 86.9205Z" fill="#5C6172"/>
<rect x="96" y="40" width="72" height="1" fill="#EAEBF0"/>
<path d="M217.06 32.7853C213.269 30.3894 208.767 29 204.001 29C199.234 29 194.731 30.3895 190.94 32.7855C184.906 36.6 178.603 41 171.464 41H168V109H240V41H236.538C229.399 41 223.095 36.5999 217.06 32.7853Z" fill="white"/>
<path d="M240 40.5C240 40.5 238.548 40.5 236.538 40.5C229.399 40.5 223.095 36.0999 217.06 32.2853C213.269 29.8894 208.767 28.5 204.001 28.5C199.234 28.5 194.731 29.8895 190.94 32.2855C184.906 36.1 178.603 40.5 171.464 40.5H168" stroke="#EAEBF0"/>
<rect width="52" height="52" transform="translate(178.5 41.5)" fill="white"/>
<g opacity="0.7" filter="url(#filter1_f_4662_33197)">
<ellipse cx="211.5" cy="58.5" rx="12.5" ry="17.5" fill="#A057E8"/>
</g>
<g opacity="0.7" filter="url(#filter2_f_4662_33197)">
<circle cx="197" cy="70" r="11" fill="#051060"/>
</g>
<g filter="url(#filter3_d_4662_33197)">
<mask id="path-24-inside-3_4662_33197" fill="white">
<path d="M178.5 67.5C178.5 53.1406 190.141 41.5 204.5 41.5V41.5C218.859 41.5 230.5 53.1406 230.5 67.5V67.5C230.5 81.8594 218.859 93.5 204.5 93.5V93.5C190.141 93.5 178.5 81.8594 178.5 67.5V67.5Z"/>
</mask>
<path d="M178.5 67.5C178.5 53.1406 190.141 41.5 204.5 41.5V41.5C218.859 41.5 230.5 53.1406 230.5 67.5V67.5C230.5 81.8594 218.859 93.5 204.5 93.5V93.5C190.141 93.5 178.5 81.8594 178.5 67.5V67.5Z" fill="url(#paint0_linear_4662_33197)"/>
<path d="M177 66.75C177 51.9764 188.976 40 203.75 40C218.524 40 230.5 51.9764 230.5 66.75V67.5C230.5 53.969 218.859 43 204.5 43H204.5C190.969 43 180 53.969 180 67.5L177 66.75ZM180 67.5M230.5 93.5H178.5H230.5M203.75 93.5C188.976 93.5 177 81.5236 177 66.75C177 51.9764 188.976 40 203.75 40L204.5 43C190.969 43 180 53.969 180 67.5V67.5C180 81.8594 190.969 93.5 204.5 93.5H203.75ZM204.5 93.5M230.5 41.5V93.5V41.5" fill="white" fill-opacity="0.2" mask="url(#path-24-inside-3_4662_33197)"/>
<g clip-path="url(#clip0_4662_33197)">
<path d="M211.343 57.2344C216.46 57.2344 220.609 61.3854 220.609 66.5029C220.609 70.8601 217.6 74.5134 213.548 75.5029V81.2363L205.947 75.7695H197.056C194.886 75.7695 192.892 75.0214 191.313 73.7725L193.508 71.5771C194.569 72.3555 195.877 72.8163 197.294 72.8164L197.624 72.8086C200.901 72.6425 203.528 70.0145 203.694 66.7373L203.703 66.4082C203.703 62.8687 200.833 59.999 197.294 59.999L196.965 60.0078C193.578 60.1793 190.886 62.9791 190.886 66.4082L190.894 66.7373C190.959 68.0266 191.406 69.2145 192.123 70.1924L189.911 72.4033C188.586 70.8006 187.789 68.7448 187.789 66.5029C187.789 61.3854 191.938 57.2344 197.056 57.2344H211.343ZM190.59 73.1113L190.94 73.4619C190.64 73.1976 190.357 72.914 190.093 72.6133L190.59 73.1113ZM197.294 61.958C199.751 61.958 201.744 63.9508 201.744 66.4082C201.744 68.8655 199.751 70.8574 197.294 70.8574C194.837 70.8573 192.845 68.8654 192.845 66.4082C192.845 63.9509 194.837 61.9582 197.294 61.958ZM196.724 64.2949C196.459 65.0099 195.896 65.5742 195.181 65.8389L193.744 66.3701L195.181 66.9014C195.895 67.166 196.459 67.7296 196.724 68.4443L197.255 69.8809L197.786 68.4443C198.051 67.7294 198.615 67.1659 199.33 66.9014L200.766 66.3701L199.33 65.8389C198.615 65.5743 198.051 65.01 197.786 64.2949L197.255 62.8594L196.724 64.2949ZM207.335 64.3174C207.001 65.2188 206.291 65.9301 205.39 66.2637L204.932 66.4326L205.39 66.6025C206.291 66.9362 207.001 67.6466 207.335 68.5479L207.505 69.0059L207.674 68.5479C208.007 67.6464 208.719 66.9362 209.62 66.6025L210.078 66.4326L209.62 66.2637C208.719 65.9301 208.007 65.219 207.674 64.3174L207.505 63.8594L207.335 64.3174ZM214.761 64.3174C214.427 65.2188 213.717 65.9301 212.815 66.2637L212.357 66.4326L212.815 66.6025C213.717 66.9362 214.427 67.6466 214.761 68.5479L214.931 69.0059L215.1 68.5479C215.433 67.6464 216.144 66.9362 217.046 66.6025L217.504 66.4326L217.046 66.2637C216.144 65.9301 215.433 65.219 215.1 64.3174L214.931 63.8594L214.761 64.3174Z" fill="white"/>
</g>
</g>
<path d="M204.001 28.5C208.669 28.5001 213.08 29.8609 216.793 32.208C219.795 34.1056 222.911 36.1803 226.165 37.7725C229.426 39.3679 232.865 40.4999 236.538 40.5H235.536C232.076 40.5 228.808 39.3614 225.572 37.8203C223.955 37.05 222.356 36.1848 220.748 35.3164C219.144 34.4503 217.53 33.5809 215.899 32.8154C212.463 31.2019 208.454 30.5 204.001 30.5C199.548 30.5 195.537 31.2017 192.101 32.8154C190.47 33.5809 188.856 34.4503 187.252 35.3164C185.644 36.1848 184.045 37.05 182.428 37.8203C179.192 39.3614 175.924 40.5 172.464 40.5H171.464C175.137 40.5 178.576 39.3678 181.836 37.7725C185.09 36.1803 188.206 34.1056 191.208 32.208C194.922 29.8609 199.332 28.5 204.001 28.5Z" fill="url(#paint1_linear_4662_33197)" stroke="url(#paint2_linear_4662_33197)"/>
<mask id="path-28-inside-4_4662_33197" fill="white">
<path d="M240 40H312V108H240V40Z"/>
</mask>
<path d="M240 40V41H312V40V39H240V40Z" fill="#D0DDFC" mask="url(#path-28-inside-4_4662_33197)"/>
<path d="M280.167 67.3588H276.833L273.125 69.8254C272.575 70.1921 271.833 69.8004 271.833 69.1338V67.3588C269.333 67.3588 267.667 65.6921 267.667 63.1921V58.1921C267.667 55.6921 269.333 54.0254 271.833 54.0254H280.167C282.667 54.0254 284.333 55.6921 284.333 58.1921V63.1921C284.333 65.6921 282.667 67.3588 280.167 67.3588Z" stroke="#5C6172" stroke-width="1.25" stroke-miterlimit="10" stroke-linecap="round" stroke-linejoin="round"/>
<path d="M276 61.8358V61.7073C276 60.9896 276.443 60.6097 276.886 60.3036C277.319 60.0081 277.752 59.6282 277.752 58.9316C277.752 57.9607 276.971 57.1797 276 57.1797C275.029 57.1797 274.248 57.9607 274.248 58.9316" stroke="#5C6172" stroke-width="1.25" stroke-linecap="round" stroke-linejoin="round"/>
<path d="M276 64.0254H276.007" stroke="#5C6172" stroke-width="1.66667" stroke-linecap="round" stroke-linejoin="round"/>
<path d="M264.043 92V83.2727H265.1V87.1591H269.753V83.2727H270.81V92H269.753V88.0966H265.1V92H264.043ZM275.534 92.1364C274.903 92.1364 274.359 91.9972 273.902 91.7188C273.447 91.4375 273.096 91.0455 272.849 90.5426C272.605 90.0369 272.483 89.4489 272.483 88.7784C272.483 88.108 272.605 87.517 272.849 87.0057C273.096 86.4915 273.44 86.0909 273.881 85.804C274.324 85.5142 274.841 85.3693 275.432 85.3693C275.773 85.3693 276.109 85.4261 276.442 85.5398C276.774 85.6534 277.077 85.8381 277.349 86.0938C277.622 86.3466 277.839 86.6818 278.001 87.0994C278.163 87.517 278.244 88.0312 278.244 88.642V89.0682H273.199V88.1989H277.221C277.221 87.8295 277.148 87.5 277 87.2102C276.855 86.9205 276.648 86.6918 276.378 86.5241C276.111 86.3565 275.795 86.2727 275.432 86.2727C275.031 86.2727 274.684 86.3722 274.392 86.571C274.102 86.767 273.879 87.0227 273.723 87.3381C273.567 87.6534 273.488 87.9915 273.488 88.3523V88.9318C273.488 89.4261 273.574 89.8452 273.744 90.1889C273.917 90.5298 274.157 90.7898 274.464 90.9688C274.771 91.1449 275.128 91.233 275.534 91.233C275.798 91.233 276.037 91.196 276.25 91.1222C276.466 91.0455 276.652 90.9318 276.808 90.7812C276.964 90.6278 277.085 90.4375 277.17 90.2102L278.142 90.483C278.04 90.8125 277.868 91.1023 277.626 91.3523C277.385 91.5994 277.086 91.7926 276.731 91.9318C276.376 92.0682 275.977 92.1364 275.534 92.1364ZM280.78 83.2727V92H279.774V83.2727H280.78ZM282.622 94.4545V85.4545H283.593V86.4943H283.713C283.786 86.3807 283.889 86.2358 284.019 86.0597C284.153 85.8807 284.343 85.7216 284.59 85.5824C284.84 85.4403 285.178 85.3693 285.605 85.3693C286.156 85.3693 286.642 85.5071 287.062 85.7827C287.482 86.0582 287.811 86.4489 288.046 86.9545C288.282 87.4602 288.4 88.0568 288.4 88.7443C288.4 89.4375 288.282 90.0384 288.046 90.5469C287.811 91.0526 287.484 91.4446 287.066 91.723C286.649 91.9986 286.167 92.1364 285.622 92.1364C285.201 92.1364 284.865 92.0668 284.612 91.9276C284.359 91.7855 284.164 91.625 284.028 91.446C283.892 91.2642 283.786 91.1136 283.713 90.9943H283.627V94.4545H282.622ZM283.61 88.7273C283.61 89.2216 283.683 89.6577 283.828 90.0355C283.972 90.4105 284.184 90.7045 284.463 90.9176C284.741 91.1278 285.082 91.233 285.485 91.233C285.906 91.233 286.257 91.1222 286.538 90.9006C286.822 90.6761 287.035 90.375 287.177 89.9972C287.322 89.6165 287.394 89.1932 287.394 88.7273C287.394 88.267 287.323 87.8523 287.181 87.483C287.042 87.1108 286.83 86.8168 286.546 86.6009C286.265 86.3821 285.911 86.2727 285.485 86.2727C285.076 86.2727 284.732 86.3764 284.454 86.5838C284.176 86.7884 283.965 87.0753 283.823 87.4446C283.681 87.8111 283.61 88.2386 283.61 88.7273Z" fill="#5C6172"/>
<mask id="path-34-inside-5_4662_33197" fill="white">
<path d="M312 40H384V108H312V40Z"/>
</mask>
<path d="M312 40V41H384V40V39H312V40Z" fill="#D0DDFC" mask="url(#path-34-inside-5_4662_33197)"/>
<path d="M347.083 68.4991C351.179 68.4991 354.5 65.1787 354.5 61.0826C354.5 56.9866 351.179 53.666 347.083 53.666C342.987 53.666 339.667 56.9866 339.667 61.0826C339.667 65.1787 342.987 68.4991 347.083 68.4991Z" stroke="#5C6172" stroke-width="1.25" stroke-linecap="round" stroke-linejoin="round"/>
<path d="M356.333 70.3335L352.355 66.3555" stroke="#5C6172" stroke-width="1.25" stroke-linecap="round" stroke-linejoin="round"/>
<path d="M348.681 64.3179H346.016C345.176 64.3179 344.494 63.636 344.494 62.7955V59.3701C344.494 58.5296 344.755 57.8477 345.596 57.8477H347.602C347.805 57.8477 347.999 57.9269 348.141 58.0697L349.981 59.9092C350.124 60.052 350.203 60.2454 350.203 60.4484V62.7955C350.203 63.636 349.521 64.3179 348.681 64.3179Z" stroke="#5C6172" stroke-width="1.25" stroke-linecap="round" stroke-linejoin="round"/>
<path d="M347.919 58.0312V59.2917C347.919 59.741 348.284 60.1059 348.733 60.1059H350.027" stroke="#5C6172" stroke-width="1.25" stroke-linecap="round" stroke-linejoin="round"/>
<path d="M332.841 84.2102V83.2727H339.387V84.2102H336.642V92H335.586V84.2102H332.841ZM340.202 92V85.4545H341.173V86.4432H341.241C341.361 86.1193 341.577 85.8565 341.889 85.6548C342.202 85.4531 342.554 85.3523 342.946 85.3523C343.02 85.3523 343.112 85.3537 343.223 85.3565C343.334 85.3594 343.418 85.3636 343.474 85.3693V86.392C343.44 86.3835 343.362 86.3707 343.24 86.3537C343.121 86.3338 342.994 86.3239 342.861 86.3239C342.543 86.3239 342.259 86.3906 342.009 86.5241C341.761 86.6548 341.565 86.8366 341.42 87.0696C341.278 87.2997 341.207 87.5625 341.207 87.858V92H340.202ZM346.593 92.1534C346.178 92.1534 345.801 92.0753 345.463 91.919C345.125 91.7599 344.857 91.5312 344.658 91.233C344.459 90.9318 344.36 90.5682 344.36 90.142C344.36 89.767 344.434 89.4631 344.581 89.2301C344.729 88.9943 344.926 88.8097 345.174 88.6761C345.421 88.5426 345.694 88.4432 345.992 88.3778C346.293 88.3097 346.596 88.2557 346.9 88.2159C347.297 88.1648 347.62 88.1264 347.867 88.1009C348.117 88.0724 348.299 88.0256 348.412 87.9602C348.529 87.8949 348.587 87.7812 348.587 87.6193V87.5852C348.587 87.1648 348.472 86.8381 348.242 86.6051C348.015 86.3722 347.669 86.2557 347.206 86.2557C346.726 86.2557 346.35 86.3608 346.077 86.571C345.804 86.7812 345.613 87.0057 345.502 87.2443L344.547 86.9034C344.718 86.5057 344.945 86.196 345.229 85.9744C345.516 85.75 345.828 85.5937 346.167 85.5057C346.507 85.4148 346.843 85.3693 347.172 85.3693C347.382 85.3693 347.624 85.3949 347.897 85.446C348.172 85.4943 348.438 85.5952 348.694 85.7486C348.952 85.902 349.167 86.1335 349.337 86.4432C349.507 86.7528 349.593 87.1676 349.593 87.6875V92H348.587V91.1136H348.536C348.468 91.2557 348.354 91.4077 348.195 91.5696C348.036 91.7315 347.824 91.8693 347.56 91.983C347.296 92.0966 346.973 92.1534 346.593 92.1534ZM346.746 91.25C347.144 91.25 347.479 91.1719 347.752 91.0156C348.027 90.8594 348.235 90.6577 348.374 90.4105C348.516 90.1634 348.587 89.9034 348.587 89.6307V88.7102C348.544 88.7614 348.451 88.8082 348.306 88.8509C348.164 88.8906 347.999 88.9261 347.811 88.9574C347.627 88.9858 347.446 89.0114 347.27 89.0341C347.097 89.054 346.956 89.071 346.848 89.0852C346.587 89.1193 346.343 89.1747 346.115 89.2514C345.891 89.3253 345.709 89.4375 345.57 89.5881C345.434 89.7358 345.365 89.9375 345.365 90.1932C345.365 90.5426 345.495 90.8068 345.753 90.9858C346.015 91.1619 346.346 91.25 346.746 91.25ZM354.087 92.1364C353.474 92.1364 352.945 91.9915 352.502 91.7017C352.059 91.4119 351.718 91.0128 351.479 90.5043C351.241 89.9957 351.121 89.4148 351.121 88.7614C351.121 88.0966 351.244 87.5099 351.488 87.0014C351.735 86.4901 352.079 86.0909 352.519 85.804C352.962 85.5142 353.479 85.3693 354.07 85.3693C354.531 85.3693 354.945 85.4545 355.315 85.625C355.684 85.7955 355.987 86.0341 356.222 86.3409C356.458 86.6477 356.604 87.0057 356.661 87.4148H355.656C355.579 87.1165 355.408 86.8523 355.144 86.6222C354.883 86.3892 354.531 86.2727 354.087 86.2727C353.695 86.2727 353.352 86.375 353.056 86.5795C352.763 86.7812 352.535 87.0668 352.37 87.4361C352.208 87.8026 352.127 88.233 352.127 88.7273C352.127 89.233 352.207 89.6733 352.366 90.0483C352.528 90.4233 352.755 90.7145 353.048 90.9219C353.343 91.1293 353.69 91.233 354.087 91.233C354.349 91.233 354.586 91.1875 354.799 91.0966C355.012 91.0057 355.192 90.875 355.34 90.7045C355.488 90.5341 355.593 90.3295 355.656 90.0909H356.661C356.604 90.4773 356.464 90.8253 356.239 91.1349C356.018 91.4418 355.724 91.6861 355.357 91.8679C354.994 92.0469 354.57 92.1364 354.087 92.1364ZM359.069 89.6136L359.052 88.3693H359.256L362.12 85.4545H363.364L360.313 88.5398H360.228L359.069 89.6136ZM358.131 92V83.2727H359.137V92H358.131ZM362.29 92L359.734 88.7614L360.45 88.0625L363.569 92H362.29Z" fill="#5C6172"/>
</g>
<defs>
<filter id="filter0_d_4662_33197" x="0" y="0" width="408" height="129" filterUnits="userSpaceOnUse" color-interpolation-filters="sRGB">
<feFlood flood-opacity="0" result="BackgroundImageFix"/>
<feColorMatrix in="SourceAlpha" type="matrix" values="0 0 0 0 0 0 0 0 0 0 0 0 0 0 0 0 0 0 127 0" result="hardAlpha"/>
<feOffset dy="-4"/>
<feGaussianBlur stdDeviation="12"/>
<feComposite in2="hardAlpha" operator="out"/>
<feColorMatrix type="matrix" values="0 0 0 0 0 0 0 0 0 0 0 0 0 0 0 0 0 0 0.1 0"/>
<feBlend mode="normal" in2="BackgroundImageFix" result="effect1_dropShadow_4662_33197"/>
<feBlend mode="normal" in="SourceGraphic" in2="effect1_dropShadow_4662_33197" result="shape"/>
</filter>
<filter id="filter1_f_4662_33197" x="170" y="12" width="83" height="93" filterUnits="userSpaceOnUse" color-interpolation-filters="sRGB">
<feFlood flood-opacity="0" result="BackgroundImageFix"/>
<feBlend mode="normal" in="SourceGraphic" in2="BackgroundImageFix" result="shape"/>
<feGaussianBlur stdDeviation="14.5" result="effect1_foregroundBlur_4662_33197"/>
</filter>
<filter id="filter2_f_4662_33197" x="157" y="30" width="80" height="80" filterUnits="userSpaceOnUse" color-interpolation-filters="sRGB">
<feFlood flood-opacity="0" result="BackgroundImageFix"/>
<feBlend mode="normal" in="SourceGraphic" in2="BackgroundImageFix" result="shape"/>
<feGaussianBlur stdDeviation="14.5" result="effect1_foregroundBlur_4662_33197"/>
</filter>
<filter id="filter3_d_4662_33197" x="134.697" y="0.299999" width="139.607" height="139.607" filterUnits="userSpaceOnUse" color-interpolation-filters="sRGB">
<feFlood flood-opacity="0" result="BackgroundImageFix"/>
<feColorMatrix in="SourceAlpha" type="matrix" values="0 0 0 0 0 0 0 0 0 0 0 0 0 0 0 0 0 0 127 0" result="hardAlpha"/>
<feOffset dy="2.60339"/>
<feGaussianBlur stdDeviation="21.9017"/>
<feComposite in2="hardAlpha" operator="out"/>
<feColorMatrix type="matrix" values="0 0 0 0 0.2 0 0 0 0 0.584314 0 0 0 0 1 0 0 0 0.25 0"/>
<feBlend mode="normal" in2="BackgroundImageFix" result="effect1_dropShadow_4662_33197"/>
<feBlend mode="normal" in="SourceGraphic" in2="effect1_dropShadow_4662_33197" result="shape"/>
</filter>
<linearGradient id="paint0_linear_4662_33197" x1="178.5" y1="41.5" x2="235.573" y2="47.8415" gradientUnits="userSpaceOnUse">
<stop stop-color="#10183A"/>
<stop offset="1" stop-color="#112266"/>
</linearGradient>
<linearGradient id="paint1_linear_4662_33197" x1="168" y1="34.5" x2="240" y2="34.5" gradientUnits="userSpaceOnUse">
<stop stop-color="#E6DDFE"/>
<stop offset="0.274038" stop-color="#7454F2"/>
<stop offset="0.778846" stop-color="#B098FB"/>
<stop offset="1" stop-color="#E6DDFE"/>
</linearGradient>
<linearGradient id="paint2_linear_4662_33197" x1="168" y1="34.5" x2="240" y2="34.5" gradientUnits="userSpaceOnUse">
<stop stop-color="#E6DDFE"/>
<stop offset="0.274038" stop-color="#7454F2"/>
<stop offset="0.778846" stop-color="#B098FB"/>
<stop offset="1" stop-color="#E6DDFE"/>
</linearGradient>
<clipPath id="clip0_4662_33197">
<rect width="38" height="37" fill="white" transform="translate(185.5 49)"/>
</clipPath>
</defs>
</svg>
